<!DOCTYPE svg PUBLIC "-//W3C//DTD SVG 1.1//EN" "http://www.w3.org/Graphics/SVG/1.1/DTD/svg11.dtd">
<!-- Uploaded to: SVG Repo, www.svgrepo.com, Transformed by: SVG Repo Mixer Tools -->
<svg fill="#012970" width="800px" height="800px" viewBox="0 0 24 24" xmlns="http://www.w3.org/2000/svg" stroke="#012970">
<g id="SVGRepo_bgCarrier" stroke-width="0"/>
<g id="SVGRepo_tracerCarrier" stroke-linecap="round" stroke-linejoin="round"/>
<g id="SVGRepo_iconCarrier">
<path d="M16.813 4.419A.997.997 0 0 0 16 4H3a1 1 0 0 0-.813 1.581L6.771 12l-4.585 6.419A1 1 0 0 0 3 20h13a.997.997 0 0 0 .813-.419l5-7a.997.997 0 0 0 0-1.162l-5-7zM15.485 18H4.943l3.87-5.419a.997.997 0 0 0 0-1.162L4.943 6h10.542l4.286 6-4.286 6z"/>
</g>
</svg>